HIERARCHY
ROOT hip
{
  OFFSET 0 0 0
  CHANNELS 6 Xposition Yposition Zposition Zrotation Yrotation Xrotation
  JOINT abdomen
  {
    OFFSET 0 20.6881 -0.73152
    CHANNELS 3 Zrotation Xrotation Yrotation
    JOINT chest
    {
      OFFSET 0 11.7043 -0.48768
      CHANNELS 3 Zrotation Xrotation Yrotation
      JOINT neck
      {
        OFFSET 0 22.1894 -2.19456
        CHANNELS 3 Zrotation Xrotation Yrotation
        JOINT head
        {
          OFFSET -0.24384 7.07133 1.2192
          CHANNELS 3 Zrotation Xrotation Yrotation
          JOINT leftEye
          {
            OFFSET 4.14528 8.04674 8.04672
            CHANNELS 3 Zrotation Xrotation Yrotation
            End Site
            {
              OFFSET 1 0 0
            }
          }
          JOINT rightEye
          {
            OFFSET -3.6576 8.04674 8.04672
            CHANNELS 3 Zrotation Xrotation Yrotation
            End Site
            {
              OFFSET 1 0 0
            }
          }
        }
      }
      JOINT rCollar
      {
        OFFSET -2.68224 19.2634 -4.8768
        CHANNELS 3 Zrotation Xrotation Yrotation
        JOINT rShldr
        {
          OFFSET -8.77824 -1.95073 1.46304
          CHANNELS 3 Zrotation Xrotation Yrotation
          JOINT rForeArm
          {
            OFFSET -28.1742 -1.7115 0.48768
            CHANNELS 3 Zrotation Xrotation Yrotation
            JOINT rHand
            {
              OFFSET -22.5879 0.773209 7.07136
              CHANNELS 3 Zrotation Xrotation Yrotation
              JOINT rThumb1
              {
                OFFSET -1.2192 -0.487915 3.41376
                CHANNELS 3 Zrotation Xrotation Yrotation
                JOINT rThumb2
                {
                  OFFSET -3.37035 -0.52449 3.41376
                  CHANNELS 3 Zrotation Xrotation Yrotation
                  End Site
                  {
                    OFFSET -1.78271 -1.18214 1.43049
                  }
                }
              }
              JOINT rIndex1
              {
                OFFSET -7.75947 0.938293 5.60832
                CHANNELS 3 Zrotation Xrotation Yrotation
                JOINT rIndex2
                {
                  OFFSET -2.54057 -0.884171 1.56538
                  CHANNELS 3 Zrotation Xrotation Yrotation
                  End Site
                  {
                    OFFSET -1.62519 -0.234802 1.16502
                  }
                }
              }
              JOINT rMid1
              {
                OFFSET -8.24714 1.18213 3.41376
                CHANNELS 3 Zrotation Xrotation Yrotation
                JOINT rMid2
                {
                  OFFSET -3.10165 -0.590103 1.0647
                  CHANNELS 3 Zrotation Xrotation Yrotation
                  End Site
                  {
                    OFFSET -2.48547 -0.328903 0.83742
                  }
                }
              }
              JOINT rRing1
              {
                OFFSET -8.82822 0.546677 1.51678
                CHANNELS 3 Zrotation Xrotation Yrotation
                JOINT rRing2
                {
                  OFFSET -2.60934 -0.819778 -0.0198488
                  CHANNELS 3 Zrotation Xrotation Yrotation
                  End Site
                  {
                    OFFSET -2.33842 -0.294052 0.168128
                  }
                }
              }
              JOINT rPinky1
              {
                OFFSET -8.27202 -0.0477905 -0.4584
                CHANNELS 3 Zrotation Xrotation Yrotation
                JOINT rPinky2
                {
                  OFFSET -1.82734 -0.647385 -0.700984
                  CHANNELS 3 Zrotation Xrotation Yrotation
                  End Site
                  {
                    OFFSET -1.69225 -0.51767 -0.607171
                  }
                }
              }
            }
          }
        }
      }
      JOINT lCollar
      {
        OFFSET 2.68224 19.2634 -4.8768
        CHANNELS 3 Zrotation Xrotation Yrotation
        JOINT lShldr
        {
          OFFSET 8.77824 -1.95073 1.46304
          CHANNELS 3 Zrotation Xrotation Yrotation
          JOINT lForeArm
          {
            OFFSET 28.1742 -1.7115 0.48768
            CHANNELS 3 Zrotation Xrotation Yrotation
            JOINT lHand
            {
              OFFSET 22.5879 0.773209 7.07136
              CHANNELS 3 Zrotation Xrotation Yrotation
              JOINT lThumb1
              {
                OFFSET 1.2192 -0.487915 3.41376
                CHANNELS 3 Zrotation Xrotation Yrotation
                JOINT lThumb2
                {
                  OFFSET 3.37035 -0.52449 3.41376
                  CHANNELS 3 Zrotation Xrotation Yrotation
                  End Site
                  {
                    OFFSET 1.78271 -1.18214 1.43049
                  }
                }
              }
              JOINT lIndex1
              {
                OFFSET 7.75947 0.938293 5.60832
                CHANNELS 3 Zrotation Xrotation Yrotation
                JOINT lIndex2
                {
                  OFFSET 2.54057 -0.884171 1.56538
                  CHANNELS 3 Zrotation Xrotation Yrotation
                  End Site
                  {
                    OFFSET 1.62519 -0.234802 1.16502
                  }
                }
              }
              JOINT lMid1
              {
                OFFSET 8.24714 1.18213 3.41376
                CHANNELS 3 Zrotation Xrotation Yrotation
                JOINT lMid2
                {
                  OFFSET 3.10165 -0.590103 1.0647
                  CHANNELS 3 Zrotation Xrotation Yrotation
                  End Site
                  {
                    OFFSET 2.48547 -0.328903 0.83742
                  }
                }
              }
              JOINT lRing1
              {
                OFFSET 8.82822 0.546677 1.51678
                CHANNELS 3 Zrotation Xrotation Yrotation
                JOINT lRing2
                {
                  OFFSET 2.60934 -0.819778 -0.0198488
                  CHANNELS 3 Zrotation Xrotation Yrotation
                  End Site
                  {
                    OFFSET 2.33842 -0.294052 0.168128
                  }
                }
              }
              JOINT lPinky1
              {
                OFFSET 8.27202 -0.0477905 -0.4584
                CHANNELS 3 Zrotation Xrotation Yrotation
                JOINT lPinky2
                {
                  OFFSET 1.82734 -0.647385 -0.700984
                  CHANNELS 3 Zrotation Xrotation Yrotation
                  End Site
                  {
                    OFFSET 1.69225 -0.51767 -0.607171
                  }
                }
              }
            }
          }
        }
      }
    }
  }
  JOINT rButtock
  {
    OFFSET -8.77824 4.35084 1.2192
    CHANNELS 3 Zrotation Xrotation Yrotation
    JOINT rThigh
    {
      OFFSET 0 -1.70687 -2.19456
      CHANNELS 3 Zrotation Xrotation Yrotation
      JOINT rShin
      {
        OFFSET 0 -36.8199 0.73152
        CHANNELS 3 Zrotation Xrotation Yrotation
        JOINT rFoot
        {
          OFFSET 0.73152 -45.1104 -5.12064
          CHANNELS 3 Zrotation Xrotation Yrotation
          End Site
          {
            OFFSET -1.1221 -3.69964 12.103
          }
        }
      }
    }
  }
  JOINT lButtock
  {
    OFFSET 8.77824 4.35084 1.2192
    CHANNELS 3 Zrotation Xrotation Yrotation
    JOINT lThigh
    {
      OFFSET 0 -1.70687 -2.19456
      CHANNELS 3 Zrotation Xrotation Yrotation
      JOINT lShin
      {
        OFFSET 0 -36.8199 0.73152
        CHANNELS 3 Zrotation Xrotation Yrotation
        JOINT lFoot
        {
          OFFSET -0.73152 -45.1104 -5.12064
          CHANNELS 3 Zrotation Xrotation Yrotation
          End Site
          {
            OFFSET 1.1221 -3.69964 12.103
          }
        }
      }
    }
  }
}
MOTION
Frames:	4
Frame Time:	0.03333
-15.920100000000001 69.64099999999999 -42.1151 -7.859332 4.041645 1.553691 1.735051 2.093458 99.898906 -2.894964 -5.055218 -97.849554 13.964821 1.465138 89.116964 -7.663779 7.367218 -83.171034 0.002141 -0.0 -0.005056 -0.002605 -0.0 0.002022 -13.744024 42.43135 15.570011 -82.885853 41.370461 145.333599 -178.368246 7.176435 -123.509981 -8.982363 13.81536 -0.688934 -174.089528 -11.752974 89.875928 -163.324079 -2.195015 87.027091 -140.164781 2.326948 115.878838 -158.987203 -6.42699 118.716752 -0.220632 0.638324 0.122377 -42.067432 58.558392 36.103486 -72.756626 -72.142906 -89.772402 -58.510953 -82.27666 -84.421117 -0.16929 -0.436157 -0.156865 1.643465 -2.335312 -0.714182 9.650932 34.836323 -11.198796 -59.757605 -4.573996 -45.570921 -145.481643 18.441036 -102.699947 177.219909 15.132839 -143.722032 68.481579 37.954325 -35.660025 129.056291 -23.396824 -84.602948 129.576737 16.761702 -108.786485 175.460018 -34.133821 -116.138654 -0.04953 -0.138263 0.026776 42.07068 58.558497 -36.101026 71.926821 72.974039 -89.771887 158.820056 -26.475165 -179.864929 168.156417 80.280984 148.022326 -14.7072 41.854447 -6.80463 0.003852 0.0018 0.003852 10.724529 -16.595858 3.302705 23.8039 43.599916 63.293187 -98.895179 -62.943876 -169.650552 -179.988891 75.749499 -0.00914 -163.795509 19.571266 61.830667 40.460698 25.086138 -84.614331 25.669198 19.553879 11.111787
-16.3349 68.2465 -44.238499999999995 -7.640723 6.015221 0.521487 2.134906 3.74123 94.356993 -2.967422 -4.884732 -91.657645 13.405995 0.91257 84.228794 -8.479709 6.234816 -79.143353 -0.00177 0.0 -0.000593 -0.00177 0.0 -0.000593 -0.04929 0.292307 0.065602 68.772968 20.486376 -14.947298 22.67452 -49.943563 72.536597 -12.394044 22.318393 0.698519 -0.543076 0.536529 0.086695 -5.984452 6.866196 5.392407 29.115746 -49.291871 -4.256423 -153.903955 -9.501629 112.821676 -152.826485 14.79299 138.513986 -172.226502 -31.373283 143.672562 -0.007838 -0.872143 -0.275179 10.355034 0.622309 0.011088 -154.806837 47.640418 -149.293491 -148.91514 13.908586 -142.406177 -3.191966 -25.838877 5.074448 -63.351111 -3.710215 7.429585 -178.049302 -11.02199 -83.753392 -172.286442 -16.401342 -143.592778 -176.199603 -20.970956 -88.56342 93.197464 17.590291 -36.019667 -159.639916 -69.973024 -102.39443 29.01451 48.654708 -21.584617 -5.155824 -15.975462 2.315857 11.452089 33.407787 -9.081351 -0.005909 1.770605 -0.555149 -9.432309 9.233531 -1.159454 124.851832 -29.037118 122.619533 150.21866 22.468053 144.275247 179.999352 75.749159 0.000669 -163.096908 52.033857 158.920636 0.669465 -55.139761 102.266634 108.453968 40.880239 1.475944 -179.999344 75.7508 -0.0 -162.294378 14.620309 -0.0 2.180683 63.820993 33.635959 164.137632 -47.670681 16.92464
-16.902800000000003 67.10199999999999 -46.3138 -8.044055 7.927204 -0.947304 7.840369 4.562803 -108.557532 1.965385 0.832819 111.67249 7.065959 13.408477 170.531556 -2.066102 20.762991 -166.672876 -0.003392 0.0 -0.000871 0.002944 -0.0 -1e-05 -78.728272 68.389444 81.808042 76.916057 -15.701932 61.620588 44.989839 -57.347943 92.667245 -15.958601 29.949773 2.603565 -68.482557 37.953855 35.659494 -46.133752 2.670935 47.004006 54.898914 -68.58813 11.308507 3.661052 20.068665 -0.002874 -0.571344 1.648325 0.321965 2.679034 1.652442 0.198866 -145.122546 0.653293 -179.334164 11.754704 26.181111 -6.014458 -23.62875 -36.549288 -22.726458 -22.347616 -40.12283 -23.888994 152.050825 14.438934 -157.464699 1.857721 -77.658246 -46.091093 63.489642 19.980567 39.870668 -102.031731 -71.32973 -85.373671 89.136282 38.427613 -50.29906 -0.242971 -17.264113 -25.660262 160.410606 -33.695737 -122.707107 147.68192 8.946258 -116.962614 158.521898 -0.192554 -142.143721 -14.087741 -31.895704 0.858621 -0.004585 1.770405 -0.556484 155.557756 -1.105667 -171.98052 154.804506 47.639831 149.296609 -55.361072 82.486902 18.717315 179.93801 75.750708 0.047779 -163.837511 51.661611 -0.0 40.218041 40.784747 20.661299 -30.031305 -37.115476 -89.575992 -179.996859 75.7491 -0.003241 -162.276811 8.734198 115.414609 86.525504 -30.133305 -18.321521 -132.61113 27.216838 50.276664
-17.6207 66.4592 -48.193200000000004 -8.488789 10.043619 -2.079138 3.610331 6.360689 77.757746 -2.276193 -5.639629 -73.51599 12.828404 7.228055 117.278776 -9.460203 13.714975 -113.520443 -0.001126 -0.0 0.000112 -0.001126 -0.0 0.000112 -2.746554 13.830255 3.439363 -19.551656 86.350566 91.931297 -24.556392 43.604035 -66.205966 170.515291 -32.154936 141.93009 -178.927986 -16.453485 89.422017 25.519891 -67.988386 19.140891 -145.33723 -6.263836 118.679754 -53.375735 55.909491 37.130311 -36.034724 51.723348 29.832482 -88.572123 63.98495 80.472565 -72.349957 72.974853 90.218051 4.87407 -25.9925 -8.028111 -151.104973 33.060437 -146.768855 0.855498 -2.616163 -2.754594 5.825012 24.937308 -6.98963 109.661723 -13.044558 -145.504377 137.156665 14.832744 136.759698 -3.590274 -14.706298 -0.226041 -57.544368 -43.950996 -16.645808 142.375973 -80.337293 -165.907964 90.226225 41.073223 -75.796597 -0.765279 8.750667 3.617184 -3.776699 -11.559262 1.812653 -0.287474 8.284837 -1.291092 0.001353 0.063762 -0.020604 52.813552 -86.669362 74.310497 117.241372 -36.647151 115.190283 147.412094 14.058086 142.739061 -0.005497 0.000247 -0.002748 11.339181 -26.898621 -156.094813 -46.969006 -38.129664 177.833812 -83.243313 53.866912 -14.091299 0.0 0.001555 -0.001471 45.414629 -61.060838 -180.0 107.203343 -37.184789 -171.37002 136.172274 -39.402075 -126.360196
